<svg xmlns="http://www.w3.org/2000/svg" viewBox="0 0 379.34 417.93"><defs><style>.cls-1{fill:#4366b0;}.cls-2{fill:none;stroke:#4366b0;stroke-miterlimit:10;}</style></defs><g id="Layer_3_copy_4" data-name="Layer 3 copy 4"><path class="cls-1" d="M367.87,291.69a14.25,14.25,0,1,0,14.24,14.25A14.25,14.25,0,0,0,367.87,291.69Zm0,26.25a12,12,0,1,1,12-12A12,12,0,0,1,367.87,317.94Z" transform="translate(-52.93 -47.62)"/><path class="cls-1" d="M414.1,192.18a18.18,18.18,0,1,0,18.17,18.18A18.18,18.18,0,0,0,414.1,192.18Zm0,34.46a16.29,16.29,0,1,1,16.28-16.28A16.28,16.28,0,0,1,414.1,226.64Z" transform="translate(-52.93 -47.62)"/><path class="cls-1" d="M414.1,197.33a13,13,0,1,0,13,13A13,13,0,0,0,414.1,197.33Zm0,24a11,11,0,1,1,11-11A11,11,0,0,1,414.1,221.33Z" transform="translate(-52.93 -47.62)"/><path class="cls-1" d="M365,111.82a10.5,10.5,0,1,0,10.5,10.5A10.51,10.51,0,0,0,365,111.82Zm0,18.35a7.85,7.85,0,1,1,7.84-7.85A7.85,7.85,0,0,1,365,130.17Z" transform="translate(-52.93 -47.62)"/><path class="cls-1" d="M399.43,153.67a13.2,13.2,0,1,0,13.2,13.19A13.18,13.18,0,0,0,399.43,153.67Zm0,23.79a10.6,10.6,0,1,1,10.6-10.6A10.6,10.6,0,0,1,399.43,177.46Z" transform="translate(-52.93 -47.62)"/><path class="cls-1" d="M399.43,148.66a18.21,18.21,0,1,0,18.21,18.2A18.2,18.2,0,0,0,399.43,148.66Zm0,34.58a16.38,16.38,0,1,1,16.38-16.38A16.37,16.37,0,0,1,399.43,183.24Z" transform="translate(-52.93 -47.62)"/><path class="cls-1" d="M313.77,69.89a20.8,20.8,0,1,0,20.8,20.8A20.81,20.81,0,0,0,313.77,69.89Zm0,38.89a18.09,18.09,0,1,1,18.09-18.09A18.09,18.09,0,0,1,313.77,108.78Z" transform="translate(-52.93 -47.62)"/><path class="cls-1" d="M313.77,76.17a14.52,14.52,0,1,0,14.51,14.52A14.52,14.52,0,0,0,313.77,76.17Zm0,26.38a11.86,11.86,0,1,1,11.85-11.86A11.85,11.85,0,0,1,313.77,102.55Z" transform="translate(-52.93 -47.62)"/><path class="cls-1" d="M360,171a8.84,8.84,0,1,0,8.84,8.84A8.83,8.83,0,0,0,360,171Zm0,16.46a7.63,7.63,0,1,1,7.63-7.62A7.62,7.62,0,0,1,360,187.46Z" transform="translate(-52.93 -47.62)"/><path class="cls-1" d="M289.48,190.71a10.19,10.19,0,1,0,10.2,10.19A10.19,10.19,0,0,0,289.48,190.71Zm0,19a8.79,8.79,0,1,1,8.8-8.79A8.79,8.79,0,0,1,289.48,209.69Z" transform="translate(-52.93 -47.62)"/><path class="cls-1" d="M195.75,190.71a10.19,10.19,0,1,0,10.19,10.19A10.19,10.19,0,0,0,195.75,190.71Zm0,19a8.79,8.79,0,1,1,8.8-8.79A8.8,8.8,0,0,1,195.75,209.69Z" transform="translate(-52.93 -47.62)"/><line class="cls-1" x1="234.69" y1="162.59" x2="234.68" y2="162.59"/><path class="cls-1" d="M242.52,47.62a23.65,23.65,0,1,0,23.64,23.64A23.64,23.64,0,0,0,242.52,47.62Zm0,44.4a20.76,20.76,0,1,1,20.75-20.76A20.77,20.77,0,0,1,242.52,92Z" transform="translate(-52.93 -47.62)"/><path class="cls-1" d="M313.15,121.43q-.63,0-1.26,0A24.29,24.29,0,1,0,337.33,148c.07-.75.11-1.5.11-2.26A24.29,24.29,0,0,0,313.15,121.43ZM334.73,148a21.69,21.69,0,1,1-22.84-23.91c.42,0,.84,0,1.26,0a21.69,21.69,0,0,1,21.69,21.69C334.84,146.47,334.8,147.22,334.73,148Z" transform="translate(-52.93 -47.62)"/><path class="cls-1" d="M313.15,129.9c-.42,0-.84,0-1.26,0a15.82,15.82,0,1,0,16.91,18,15.52,15.52,0,0,0,.17-2.26A15.81,15.81,0,0,0,313.15,129.9ZM325.08,148a12.14,12.14,0,1,1-13.19-14.33c.42,0,.84-.07,1.26-.07A12.15,12.15,0,0,1,325.08,148Z" transform="translate(-52.93 -47.62)"/><path class="cls-1" d="M117.33,291.69a14.25,14.25,0,1,0,14.25,14.25A14.25,14.25,0,0,0,117.33,291.69Zm0,26.25a12,12,0,1,1,12-12A12,12,0,0,1,117.33,317.94Z" transform="translate(-52.93 -47.62)"/><path class="cls-1" d="M311.25,303.62A15.38,15.38,0,1,0,326.64,319,15.38,15.38,0,0,0,311.25,303.62Zm0,28.33a13,13,0,1,1,13-12.95A13,13,0,0,1,311.25,332Z" transform="translate(-52.93 -47.62)"/><path class="cls-1" d="M71.1,192.18a18.18,18.18,0,1,0,18.17,18.18A18.17,18.17,0,0,0,71.1,192.18Zm0,34.46a16.29,16.29,0,1,1,16.29-16.28A16.29,16.29,0,0,1,71.1,226.64Z" transform="translate(-52.93 -47.62)"/><path class="cls-1" d="M71.1,197.33a13,13,0,1,0,13,13A13,13,0,0,0,71.1,197.33Zm0,24a11,11,0,1,1,11-11A11,11,0,0,1,71.1,221.33Z" transform="translate(-52.93 -47.62)"/><path class="cls-1" d="M120.23,111.82a10.5,10.5,0,1,0,10.5,10.5A10.5,10.5,0,0,0,120.23,111.82Zm0,18.35a7.85,7.85,0,1,1,7.85-7.85A7.85,7.85,0,0,1,120.23,130.17Z" transform="translate(-52.93 -47.62)"/><path class="cls-1" d="M85.76,148.66A18.21,18.21,0,1,0,104,166.86,18.2,18.2,0,0,0,85.76,148.66Zm0,34.58a16.38,16.38,0,1,1,16.38-16.38A16.37,16.37,0,0,1,85.76,183.24Z" transform="translate(-52.93 -47.62)"/><path class="cls-1" d="M85.76,153.67A13.2,13.2,0,1,0,99,166.86,13.18,13.18,0,0,0,85.76,153.67Zm0,23.79a10.6,10.6,0,1,1,10.6-10.6A10.6,10.6,0,0,1,85.76,177.46Z" transform="translate(-52.93 -47.62)"/><path class="cls-1" d="M171.43,69.89a20.8,20.8,0,1,0,20.8,20.8A20.8,20.8,0,0,0,171.43,69.89Zm0,38.89a18.09,18.09,0,1,1,18.1-18.09A18.09,18.09,0,0,1,171.43,108.78Z" transform="translate(-52.93 -47.62)"/><path class="cls-1" d="M171.43,76.17A14.52,14.52,0,1,0,186,90.69,14.52,14.52,0,0,0,171.43,76.17Zm0,26.38a11.86,11.86,0,1,1,11.86-11.86A11.86,11.86,0,0,1,171.43,102.55Z" transform="translate(-52.93 -47.62)"/><path class="cls-1" d="M125.18,171a8.84,8.84,0,1,0,8.84,8.84A8.83,8.83,0,0,0,125.18,171Zm0,16.46a7.63,7.63,0,1,1,7.62-7.62A7.62,7.62,0,0,1,125.18,187.46Z" transform="translate(-52.93 -47.62)"/><line class="cls-1" x1="140.9" y1="162.59" x2="140.89" y2="162.59"/><path class="cls-1" d="M172,121.43a22.76,22.76,0,0,0-2.48.13,24.28,24.28,0,0,0-21.8,24.15c0,.76,0,1.51.1,2.26A24.29,24.29,0,1,0,172,121.43ZM185.12,163A21.7,21.7,0,0,1,150.47,148a21.25,21.25,0,0,1-.12-2.26,21.69,21.69,0,0,1,19.21-21.54A20.51,20.51,0,0,1,172,124a21.7,21.7,0,0,1,13.08,39Z" transform="translate(-52.93 -47.62)"/><path class="cls-1" d="M172,129.9a15.84,15.84,0,0,0-15.81,15.81,15.52,15.52,0,0,0,.16,2.26A15.82,15.82,0,1,0,172,129.9Zm6.2,26.25A12.14,12.14,0,0,1,160.12,148a11.39,11.39,0,0,1-.22-2.26,12.15,12.15,0,1,1,18.34,10.44Z" transform="translate(-52.93 -47.62)"/><path class="cls-1" d="M173.65,303.23A15.38,15.38,0,1,0,189,318.61,15.38,15.38,0,0,0,173.65,303.23Zm0,28.33a13,13,0,1,1,13-12.95A12.95,12.95,0,0,1,173.65,331.56Z" transform="translate(-52.93 -47.62)"/></g><g id="Layer_1_copy_4" data-name="Layer 1 copy 4"><path class="cls-1" d="M339.26,221.28l-29.05,27.78h33.2l14.47-14.47a5.87,5.87,0,1,1,10.88-4.29h15.29a5.51,5.51,0,1,1,0,3.76H368.63a5.88,5.88,0,0,1-8.1,3.18l-11.81,11.82h52a7.65,7.65,0,1,1,0,4.57H357.1l26.27,26.27a7.48,7.48,0,1,1-2.66,2.66l-28.92-28.93H305.43L293,265.56h37.28L364.67,300a6.68,6.68,0,1,1-2.65,2.65l-32.51-32.51H288.17l-3.92,3.76H299.3l40.37,40.37a6,6,0,1,1-2.66,2.66l-38.44-38.45H279.46l-26,24.91a36.8,36.8,0,0,0-7.3,22c0,.59,0,1.18,0,1.78l-1.23,126.45a6,6,0,0,0-4.64,0L239,327.16c0-.6,0-1.19,0-1.78a36.8,36.8,0,0,0-7.3-22l-26.05-24.91h-19.1l-38.45,38.45a6,6,0,0,1,.65,2.72,6,6,0,1,1-6-6,6,6,0,0,1,2.72.65l40.37-40.37H201L197,270.13H155.68l-32.5,32.51a6.66,6.66,0,1,1-5.85-3.47,6.62,6.62,0,0,1,3.19.82L155,265.56h37.28l-12.47-11.93H133.41l-28.93,28.93a7.38,7.38,0,0,1,1,3.78,7.48,7.48,0,1,1-3.69-6.44l26.27-26.27H84.43a7.65,7.65,0,1,1,0-4.57h52l-11.82-11.82a5.86,5.86,0,0,1-8.09-3.18H101.15a5.51,5.51,0,1,1,0-3.76h15.29a5.87,5.87,0,1,1,10.88,4.29l14.47,14.47H175l-29-27.78-69-8.36a6.4,6.4,0,1,1,.51-3.61l54.3,5.95L88.86,172.4a6.41,6.41,0,1,1,2.54-2.54l31.9,31.91V183.16a3.91,3.91,0,1,1,3.76,0v22.36l10.36,10.36,9,1v-9.49a7,7,0,1,1,3.75,0v11.29l22.08,21.11V193.56a8.11,8.11,0,1,1,3.75,0v49.8l60.21,57.57a5.22,5.22,0,0,0,3.47,1.31,6.81,6.81,0,0,0,.78-.05c0-.24,0-.48,0-.71A20.37,20.37,0,0,0,235.36,288l-41.54-42.07V205.7a5.58,5.58,0,1,1,3.76,0v37.41l17.82,17.82,3.76,3.76,20.49,20.49.25-67.46,0-7.24.23-62.61-19.09-19.09a7.29,7.29,0,1,1,2.66-2.66l16.45,16.45.1-27.57L226.6,101.32a5.59,5.59,0,1,1,3.19-5,5.46,5.46,0,0,1-.54,2.39l11,11,.07-16.88,4.47,0,.07,16.93,11-11a5.46,5.46,0,0,1-.54-2.39,5.59,5.59,0,1,1,3.19,5L244.92,115l.1,27.57,16.45-16.45a7.29,7.29,0,1,1,2.66,2.66L245,147.87l.23,62.62,0,7.23.25,67.46L266,264.69h0l21.57-21.57V205.7a5.58,5.58,0,1,1,3.76,0v40.21L249.83,288a20.42,20.42,0,0,0-5.11,13.51c0,.23,0,.47,0,.71a6.81,6.81,0,0,0,.78.05,5.22,5.22,0,0,0,3.47-1.31l60.21-57.57v-49.8a8.12,8.12,0,1,1,3.75,0v46.22L335,218.67V207.38a7.05,7.05,0,1,1,3.76,0v9.49l9-1,10.36-10.36V183.16a3.91,3.91,0,1,1,3.76,0v18.61l31.9-31.91a6.45,6.45,0,1,1,2.54,2.54l-42.86,42.86,54.3-5.95a6.39,6.39,0,1,1,.51,3.61Z" transform="translate(-52.93 -47.62)"/><path class="cls-1" d="M365,117.59a4.63,4.63,0,0,1,0,9.26,4.68,4.68,0,0,1-1.57-.28l-21.3,21.3h-23a6.33,6.33,0,0,1-5.91,4.07,6.2,6.2,0,0,1-1.81-.27l-66,66.05,0-7.23,13.3-13.21V165.73a5.15,5.15,0,1,1,3.76,0V177l19.14-19.14V100.4a6.45,6.45,0,0,0,3.76,0v59l-22.9,22.91v11.27l45.26-44.93a6.33,6.33,0,0,1,4.29-9.21V97a6.69,6.69,0,1,1,3.76,0V139.8a6.31,6.31,0,0,1,3.44,3.62h22.15L360.68,124a4.64,4.64,0,0,1,4.28-6.38Z" transform="translate(-52.93 -47.62)"/><path class="cls-1" d="M304.26,308.11" transform="translate(-52.93 -47.62)"/><path class="cls-1" d="M301.22,310.4,280,289.19a168.22,168.22,0,0,0-16.66,15.47,30.82,30.82,0,0,0-6.88,19.41v49.41a98.19,98.19,0,0,0,5.22,30.76,77.25,77.25,0,0,0,15.59,31.07A136.32,136.32,0,0,0,302.12,455a6.17,6.17,0,1,1-1.79,4.34,6,6,0,0,1,.15-1.34,90.18,90.18,0,0,1-24.38-16,61.83,61.83,0,0,1-16.48-24.82l-4-14.39c-.24,3-.36,6-.36,8.94a112.66,112.66,0,0,0,1.25,16.72A42.13,42.13,0,0,0,267,449l6.1,6.1a5.14,5.14,0,0,1,2.4-.6,5.08,5.08,0,1,1-4.64,3A41.48,41.48,0,0,1,250,423.9V324.07a30.82,30.82,0,0,1,6.88-19.41A234.34,234.34,0,0,1,279.17,283l24.71,24.71Z" transform="translate(-52.93 -47.62)"/><path class="cls-1" d="M283.35,87.76a6.46,6.46,0,0,1,1.88,12.64,6.45,6.45,0,0,1-3.76,0,6.46,6.46,0,0,1,1.88-12.64Z" transform="translate(-52.93 -47.62)"/><path class="cls-1" d="M275.31,221.43a7.39,7.39,0,0,1-5.52,7.15v32.35L266,264.68v-36.1a7.39,7.39,0,1,1,9.27-7.15Z" transform="translate(-52.93 -47.62)"/><path class="cls-1" d="M244.92,453.61a6,6,0,1,1-2.32-.47A6,6,0,0,1,244.92,453.61Z" transform="translate(-52.93 -47.62)"/><path class="cls-1" d="M239.92,210.48l0,7.24-66-66.05a6.22,6.22,0,0,1-1.82.27,6.31,6.31,0,0,1-5.9-4.07h-23l-21.31-21.3a4.65,4.65,0,1,1,2.71-2.6L144,143.42h22.14a6.35,6.35,0,0,1,3.44-3.62V97a6.69,6.69,0,1,1,3.76,0v42.41a6.31,6.31,0,0,1,4.29,9.21l45.27,44.93V182.29L200,159.38v-59a6.42,6.42,0,0,0,3.75,0v57.43L222.87,177V165.75a5.15,5.15,0,1,1,3.75,0v31.55Z" transform="translate(-52.93 -47.62)"/><path class="cls-1" d="M181.31,307.74,206,283a233.15,233.15,0,0,1,22.26,21.63,30.82,30.82,0,0,1,6.88,19.41V423.9a41.46,41.46,0,0,1-20.83,33.57,5.07,5.07,0,1,1-4.63-3,5.13,5.13,0,0,1,2.39.6l6.1-6.1a42.13,42.13,0,0,0,10.45-20.45,112.66,112.66,0,0,0,1.25-16.72c0-3-.11-6-.35-8.94l-4,14.39a61.92,61.92,0,0,1-16.47,24.82,90.38,90.38,0,0,1-24.39,16,6,6,0,0,1,.15,1.34,6.16,6.16,0,1,1-1.79-4.34,136.72,136.72,0,0,0,24.85-19.73,77.38,77.38,0,0,0,15.59-31.07,98.46,98.46,0,0,0,5.21-30.76V324.07a30.81,30.81,0,0,0-6.87-19.41,169.45,169.45,0,0,0-16.67-15.47L184,310.4Z" transform="translate(-52.93 -47.62)"/><path class="cls-1" d="M224.67,221.43a7.38,7.38,0,0,1-5.51,7.15v36.11l-3.76-3.76V228.58a7.39,7.39,0,1,1,9.27-7.15Z" transform="translate(-52.93 -47.62)"/><path class="cls-1" d="M201.84,87.76a6.46,6.46,0,1,1-6.46,6.46A6.46,6.46,0,0,1,201.84,87.76Z" transform="translate(-52.93 -47.62)"/></g><g id="Layer_2_copy_4" data-name="Layer 2 copy 4"><path class="cls-1" d="M249,64.65a6.5,6.5,0,1,0-6.5,6.49,6.5,6.5,0,0,0,6.5-6.49" transform="translate(-52.93 -47.62)"/><path class="cls-1" d="M237.37,71.14A10.42,10.42,0,0,0,232,80.28a7.94,7.94,0,0,0,0,.85h21.12c0-.28,0-.56,0-.85a10.42,10.42,0,0,0-5.42-9.14,8.34,8.34,0,0,1-10.41,0" transform="translate(-52.93 -47.62)"/><path class="cls-2" d="M320.54,318.59a.87.87,0,0,0-.44-.23h-1a6.2,6.2,0,0,0-.48-2.35,6.1,6.1,0,0,0-1.67-2.3A6,6,0,0,0,315,312.6a7,7,0,0,0-1.29-.32l-1.6,0,0,0v-1.11a1.72,1.72,0,0,0,.86-1.5,1.75,1.75,0,1,0-3.49,0,1.72,1.72,0,0,0,.88,1.51v1.1l0,0-1.58,0a6.47,6.47,0,0,0-3.23,1.43,6.14,6.14,0,0,0-1.66,2.3,6.45,6.45,0,0,0-.49,2.35h-1a.91.91,0,0,0-.44.23.88.88,0,0,0-.26.49V322a1,1,0,0,0,.22.41.86.86,0,0,0,.43.25h1.12v1.16a1.75,1.75,0,0,0,.44,1,1.68,1.68,0,0,0,.89.49h12.91a1.7,1.7,0,0,0,.88-.49,1.76,1.76,0,0,0,.45-1v-1.16h1.12a1,1,0,0,0,.42-.26.91.91,0,0,0,.23-.41v-2.94A.85.85,0,0,0,320.54,318.59Zm-13.24,3.26a2.19,2.19,0,1,1,2.19-2.18A2.19,2.19,0,0,1,307.3,321.85Zm7.87,0a2.19,2.19,0,1,1,2.19-2.18A2.19,2.19,0,0,1,315.17,321.85Z" transform="translate(-52.93 -47.62)"/><path class="cls-2" d="M309.49,319.67a2.19,2.19,0,1,1-2.19-2.19A2.19,2.19,0,0,1,309.49,319.67Z" transform="translate(-52.93 -47.62)"/><path class="cls-2" d="M317.36,319.67a2.19,2.19,0,1,1-2.19-2.19A2.19,2.19,0,0,1,317.36,319.67Z" transform="translate(-52.93 -47.62)"/><path class="cls-2" d="M309.49,319.67a2.19,2.19,0,1,1-2.19-2.19A2.19,2.19,0,0,1,309.49,319.67Z" transform="translate(-52.93 -47.62)"/><path class="cls-2" d="M317.36,319.67a2.19,2.19,0,1,1-2.19-2.19A2.19,2.19,0,0,1,317.36,319.67Z" transform="translate(-52.93 -47.62)"/><path class="cls-2" d="M173.84,309.63l0,15.52a2.62,2.62,0,0,0,1.25,1.72,2.51,2.51,0,0,0,1.63.21,3.08,3.08,0,0,0,1.95-1.3,2.31,2.31,0,0,0,1.26-.61,2.41,2.41,0,0,0,.67-1.18,2.51,2.51,0,0,0,0-1.35,2.21,2.21,0,0,0,1.32-1.12,2.27,2.27,0,0,0,.12-1.18,2.71,2.71,0,0,0-.38-1.1" transform="translate(-52.93 -47.62)"/><path class="cls-2" d="M179.58,319.82a2.7,2.7,0,0,0,1.4-.33,2.23,2.23,0,0,0,1.12-1.19,2.3,2.3,0,0,0-.2-1.81,2.57,2.57,0,0,0-.6-.74,2.46,2.46,0,0,0-.2-2.09,2.36,2.36,0,0,0-2.47-1,2.42,2.42,0,0,0-1.59,1.21,2.35,2.35,0,0,0-.27,1.19" transform="translate(-52.93 -47.62)"/><path class="cls-2" d="M176.24,311a1.68,1.68,0,0,1,2.86-.33,2,2,0,0,1,.28,1.57,1.85,1.85,0,0,1-.11.37" transform="translate(-52.93 -47.62)"/><path class="cls-2" d="M178.55,310.17a19,19,0,0,0-1.89-1.1,3.31,3.31,0,0,0-1.51-.42c-.76,0-1.18.79-1.33,1" transform="translate(-52.93 -47.62)"/><path class="cls-2" d="M175.11,319.54a2.5,2.5,0,0,1,1.29.45,2.72,2.72,0,0,1,1,2.18" transform="translate(-52.93 -47.62)"/><path class="cls-2" d="M178.27,322.07a2.61,2.61,0,0,0-1.52.48,2.35,2.35,0,0,0-1,2.17" transform="translate(-52.93 -47.62)"/><path class="cls-2" d="M179.77,314.52a2.48,2.48,0,0,1-.67,1.64,2.29,2.29,0,0,1-3.45-.07" transform="translate(-52.93 -47.62)"/><path class="cls-2" d="M179.17,318.6a1.69,1.69,0,0,1-1.19-.48,1.76,1.76,0,0,1-.51-1.17" transform="translate(-52.93 -47.62)"/><path class="cls-2" d="M175.26,312.56a1.27,1.27,0,0,0-.62.13,1.59,1.59,0,0,0-.59.59l-.14.21" transform="translate(-52.93 -47.62)"/><path class="cls-2" d="M173.78,309.63l0,15.52a2.59,2.59,0,0,1-1.25,1.71,2.44,2.44,0,0,1-1.62.22,3.11,3.11,0,0,1-2-1.3,2.34,2.34,0,0,1-1.26-.61,2.48,2.48,0,0,1-.62-2.53,2.23,2.23,0,0,1-1.31-1.12,2.19,2.19,0,0,1-.13-1.18,2.71,2.71,0,0,1,.38-1.1" transform="translate(-52.93 -47.62)"/><path class="cls-2" d="M168,319.82a2.67,2.67,0,0,1-1.39-.33,2.23,2.23,0,0,1-1.12-1.19,2.26,2.26,0,0,1,.2-1.81,2.59,2.59,0,0,1,.59-.74,2.5,2.5,0,0,1,.2-2.09,2.38,2.38,0,0,1,2.48-1,2.38,2.38,0,0,1,1.86,2.41" transform="translate(-52.93 -47.62)"/><path class="cls-2" d="M171.38,311a1.67,1.67,0,0,0-2.85-.33,2,2,0,0,0-.29,1.57,2.87,2.87,0,0,0,.11.37" transform="translate(-52.93 -47.62)"/><path class="cls-2" d="M169.08,310.17a17.91,17.91,0,0,1,1.89-1.1,3.28,3.28,0,0,1,1.51-.42c.76,0,1.17.79,1.32,1" transform="translate(-52.93 -47.62)"/><path class="cls-2" d="M171.49,320.14a2.5,2.5,0,0,0-1.29.45,2.78,2.78,0,0,0-1,2.18" transform="translate(-52.93 -47.62)"/><path class="cls-2" d="M168.33,322.67a2.61,2.61,0,0,1,1.52.48,2.42,2.42,0,0,1,.92,1.19,2.32,2.32,0,0,1,.12,1" transform="translate(-52.93 -47.62)"/><path class="cls-2" d="M168.49,314.91a2.57,2.57,0,0,0,.68,1.64,2.28,2.28,0,0,0,3.44-.07" transform="translate(-52.93 -47.62)"/><path class="cls-2" d="M169.1,319a1.64,1.64,0,0,0,1.19-.48,1.68,1.68,0,0,0,.5-1.17" transform="translate(-52.93 -47.62)"/><path class="cls-2" d="M172.31,313.93a1.06,1.06,0,0,1,.61.13,1.7,1.7,0,0,1,.6.59,2.06,2.06,0,0,1,.13.21" transform="translate(-52.93 -47.62)"/><path class="cls-2" d="M171.78,321.85a3.23,3.23,0,0,1,1.27.66,2.06,2.06,0,0,1,.49.57,1.68,1.68,0,0,1,.26.84,1.8,1.8,0,0,1,0,.28" transform="translate(-52.93 -47.62)"/></g></svg>